<svg width="800" height="60" xmlns="http://www.w3.org/2000/svg">
  <defs>
    <linearGradient id="sharkGradient" x1="0%" y1="0%" x2="100%" y2="0%">
      <stop offset="0%" style="stop-color:#004080;stop-opacity:1" />
      <stop offset="50%" style="stop-color:#0066cc;stop-opacity:1" />
      <stop offset="100%" style="stop-color:#004080;stop-opacity:1" />
    </linearGradient>
    <filter id="sharkGlow">
      <feGaussianBlur stdDeviation="2" result="coloredBlur"/>
      <feMerge> 
        <feMergeNode in="coloredBlur"/>
        <feMergeNode in="SourceGraphic"/>
      </feMerge>
    </filter>
  </defs>
  
  <!-- Background -->
  <rect width="800" height="60" fill="url(#sharkGradient)"/>
  
  <!-- Decorative lines -->
  <line x1="0" y1="30" x2="250" y2="30" stroke="rgba(255,255,255,0.3)" stroke-width="2"/>
  <line x1="550" y1="30" x2="800" y2="30" stroke="rgba(255,255,255,0.3)" stroke-width="2"/>
  
  <!-- Central shark silhouette -->
  <g transform="translate(400,30)" filter="url(#sharkGlow)">
    <!-- Shark body -->
    <ellipse cx="0" cy="0" rx="40" ry="12" fill="#00aaff"/>
    
    <!-- Shark head -->
    <ellipse cx="-35" cy="0" rx="15" ry="10" fill="#00aaff"/>
    
    <!-- Shark tail -->
    <polygon points="30,0 50,-8 45,0 50,8" fill="#00aaff"/>
    
    <!-- Dorsal fin -->
    <polygon points="-5,-12 10,-20 15,-10" fill="#00aaff"/>
    
    <!-- Pectoral fins -->
    <polygon points="-20,-5 -35,-12 -25,-2" fill="#0088dd"/>
    <polygon points="-20,5 -35,12 -25,2" fill="#0088dd"/>
    
    <!-- Eye -->
    <circle cx="-25" cy="-3" r="2" fill="white"/>
    <circle cx="-24" cy="-3" r="1" fill="black"/>
    
    <!-- Mouth -->
    <path d="M-40,-2 Q-45,0 -40,2" stroke="white" stroke-width="1" fill="none"/>
  </g>
  
  <!-- Side decorative elements -->
  <g transform="translate(150,30)">
    <circle cx="0" cy="0" r="3" fill="rgba(255,255,255,0.4)">
      <animate attributeName="opacity" values="0.4;0.8;0.4" dur="2s" repeatCount="indefinite"/>
    </circle>
  </g>
  
  <g transform="translate(650,30)">
    <circle cx="0" cy="0" r="3" fill="rgba(255,255,255,0.4)">
      <animate attributeName="opacity" values="0.4;0.8;0.4" dur="2s" begin="1s" repeatCount="indefinite"/>
    </circle>
  </g>
  
  <!-- Text -->
  <text x="400" y="50" text-anchor="middle" fill="white" font-family="Arial, sans-serif" 
        font-size="12" font-weight="bold" opacity="0.8">
    🦈 ━━━━━━━━━━━━━━━━━━━━━━━━━━━━━━━━━━━━━━━━━━━━━━━━━━━━━━━━━━━━━━━━━━━━━━━━━━━━━━━━━━━━━━━━━━━━ 🦈
  </text>
</svg>